<svg width="60" height="60" viewBox="0 0 60 60" fill="none" xmlns="http://www.w3.org/2000/svg">
<path fill-rule="evenodd" clip-rule="evenodd" d="M0 40H4V-0.000976562H0V40Z" fill="#41EAD4"/>
<path fill-rule="evenodd" clip-rule="evenodd" d="M8 40H12V10H8V40Z" fill="#FF9F1C"/>
<path fill-rule="evenodd" clip-rule="evenodd" d="M16 40H20V6H16V40Z" fill="#1B98E0"/>
<path fill-rule="evenodd" clip-rule="evenodd" d="M24 40H28V22H24V40Z" fill="#F71735"/>
<path fill-rule="evenodd" clip-rule="evenodd" d="M32 42H0V40H31V20C31 19.449 31.449 19 32 19C32.551 19 33 19.449 33 20V41C33 41.551 32.551 42 32 42Z" fill="#4F5D75"/>
<path fill-rule="evenodd" clip-rule="evenodd" d="M14.922 51.9102C9.777 51.0662 8.934 50.2232 8.09 45.0782C8.082 45.0312 8.047 45.0002 8 45.0002C7.953 45.0002 7.918 45.0312 7.91 45.0782C7.066 50.2232 6.223 51.0662 1.078 51.9102C1.031 51.9182 1 51.9532 1 52.0002C1 52.0472 1.031 52.0822 1.078 52.0902C6.223 52.9332 7.066 53.7772 7.91 58.9222C7.918 58.9692 7.953 59.0002 8 59.0002C8.047 59.0002 8.082 58.9692 8.09 58.9222C8.934 53.7772 9.777 52.9332 14.922 52.0902C14.969 52.0822 15 52.0472 15 52.0002C15 51.9532 14.969 51.9182 14.922 51.9102ZM58.922 7.91018C53.777 7.06618 52.934 6.22318 52.09 1.07818C52.082 1.03118 52.047 1.00018 52 1.00018C51.953 1.00018 51.918 1.03118 51.91 1.07818C51.067 6.22318 50.223 7.06618 45.078 7.91018C45.031 7.91818 45 7.95318 45 8.00018C45 8.04718 45.031 8.08218 45.078 8.09018C50.223 8.93418 51.067 9.77718 51.91 14.9222C51.918 14.9692 51.953 15.0002 52 15.0002C52.047 15.0002 52.082 14.9692 52.09 14.9222C52.934 9.77718 53.777 8.93418 58.922 8.09018C58.969 8.08218 59 8.04718 59 8.00018C59 7.95318 58.969 7.91818 58.922 7.91018Z" fill="#1B98E0"/>
<path fill-rule="evenodd" clip-rule="evenodd" d="M43.711 42H50.289C55.652 42 60 46.348 60 51.711V60H34V51.711C34 46.348 38.348 42 43.711 42Z" fill="#2D3142"/>
<path fill-rule="evenodd" clip-rule="evenodd" d="M50.1095 52L47.0005 47.715L43.8905 52L43.0005 42H51.0005L50.1095 52Z" fill="#247BA0"/>
<path fill-rule="evenodd" clip-rule="evenodd" d="M47 48L49 42H45L47 48Z" fill="#F71735"/>
<path fill-rule="evenodd" clip-rule="evenodd" d="M55 60H53V51C53 50.449 53.449 50 54 50C54.551 50 55 50.449 55 51V60ZM41 60H39V51C39 50.449 39.449 50 40 50C40.551 50 41 50.449 41 51V60Z" fill="#4F5D75"/>
<path fill-rule="evenodd" clip-rule="evenodd" d="M53.922 30.8789V31.4299C55.152 31.5199 56.082 32.5859 56 33.8199C56.008 34.4419 55.789 35.0429 55.391 35.5199C55.027 35.9569 54.488 36.2149 53.922 36.2189C53.852 38.5589 52.477 40.6599 50.359 41.6599L48.461 42.6489C47.543 43.1169 46.457 43.1169 45.539 42.6489L43.641 41.6599C42.586 41.1289 41.688 40.3319 41.031 39.3519C40.414 38.4219 40.086 37.3319 40.078 36.2189C38.887 36.0509 38 35.0309 38 33.8239C38 32.6209 38.887 31.5979 40.078 31.4299V30.9999L48.602 28.9999H51.012L53.922 30.8789Z" fill="#FFBF69"/>
<path fill-rule="evenodd" clip-rule="evenodd" d="M55 32C53.574 31.988 52.219 31.367 51.273 30.301L50 31L49.91 29C48.105 30.961 45.547 32.051 42.887 32H39V29.602C39 25.621 41.93 24 45.547 24H48.453C52.07 24 55 25.625 55 29.602V32Z" fill="#2D3142"/>
</svg>
