<?xml version="1.0" encoding="utf-8"?>
<!-- Svg Vector Icons : http://www.onlinewebfonts.com/icon -->
<!DOCTYPE svg PUBLIC "-//W3C//DTD SVG 1.1//EN" "http://www.w3.org/Graphics/SVG/1.1/DTD/svg11.dtd">
<svg version="1.1" xmlns="http://www.w3.org/2000/svg" xmlns:xlink="http://www.w3.org/1999/xlink" x="0px" y="0px" viewBox="0 0 256 256" enable-background="new 0 0 256 256" xml:space="preserve">
<metadata> Svg Vector Icons : http://www.onlinewebfonts.com/icon </metadata>
<g><g><g><path fill="#000000" d="M125,11c-1.9,1.5-2.4,3.8-2.1,9c0.4,7.1,2.8,13.4,5.1,13.4s4.7-6.2,5.1-13.4c0.4-7-1.1-10-5.1-10C127,10,125.7,10.4,125,11z"/><path fill="#000000" d="M75.8,31.1c-3.6,1.6-4.3,4.9-2,8.3c2.7,3.9,10.7,9.3,14.7,10c1.4,0.2,1.8,0.1,2.2-0.8c1.9-3.5-7.1-16.3-12.6-17.9C77.7,30.6,76.7,30.8,75.8,31.1z"/><path fill="#000000" d="M177.1,31.1c-2,0.6-7.2,5.8-9.5,9.6c-2.3,3.9-3.1,6.4-2.4,7.9c0.4,1,0.7,1.1,2.2,0.9c4-0.7,12-6,14.6-9.7c1.9-2.7,2-4.3,0.7-6.3C181.3,31.3,179.3,30.5,177.1,31.1z"/><path fill="#000000" d="M121.6,43.7c-5.6,0.8-12.1,3.4-17.6,7C88.2,61.2,81.3,81.3,87.1,99.5c2.1,6.7,5,11.3,10.7,17.1l3.9,4l2.3,7l2.3,7H128h21.7l2.3-7l2.3-7l3.9-4c6-6.2,8.8-10.9,11-18.4c1.7-5.7,2.1-14.4,0.9-20.2c-3.4-17-16.5-30.3-33.3-33.8C132.8,43.4,125.5,43.2,121.6,43.7z M128.3,71.3c-0.7,7-1.3,13.7-1.5,14.8l-0.2,2l9.9,0.1l10,0.1l-9.5,16.6l-9.6,16.6l-0.1-11l-0.1-11l-8.8-0.1l-8.7-0.1l9.8-21.1c5.4-11.7,9.9-20.8,10-20.4C129.4,58.2,129,64.3,128.3,71.3z"/><path fill="#000000" d="M55,81.7c-2.4,0.8-3.1,1.9-3.2,4.4c0,2.7,0.7,3.8,2.6,4.7c3.6,1.5,14.4,0.3,18.3-2c3.3-2,3.1-3.5-0.7-5.2C67.1,81.3,58.7,80.3,55,81.7z"/><path fill="#000000" d="M189.7,81.7c-1.8,0.3-4.5,1.2-6,2c-2.1,1.1-2.6,1.6-2.6,2.5c0,2.5,5.6,4.7,12.9,5.1c7.8,0.4,10.2-0.8,10.2-5c0-1.8-0.2-2.5-1.1-3.3C200.9,80.9,196.1,80.4,189.7,81.7z"/><path fill="#000000" d="M79.5,139.4c-9.1,2.4-16.2,11.3-16.2,20.1c0,2.7,12.1,66.1,13.4,69.8c2.3,6.7,6.9,12.2,12.6,15.1l3.3,1.6H128h35.5l2.6-1.2c5.9-2.8,10.8-8.4,13.1-15c1.3-3.9,13.6-67.3,13.6-70.3c0-6.8-4.9-14.6-11.3-18.1c-4-2.2-7.2-2.8-15.6-2.8h-7.6l-15,30c-8.2,16.5-15.1,30-15.2,30c-0.1,0-7-13.5-15.2-30l-15-30l-7.9,0C84.6,138.6,81.2,138.9,79.5,139.4z"/><path fill="#000000" d="M121.5,151.8c-3.3,4.4-6.3,8.3-6.6,8.6c-0.3,0.5,1.2,4.1,6.1,14c3.7,7.3,6.8,13.3,6.9,13.3s3.2-6,6.9-13.3l6.6-13.3l-6.4-8.4c-3.5-4.7-6.7-8.5-7-8.6C127.9,143.9,124.9,147.4,121.5,151.8z"/></g></g></g>
</svg>